<svg width="81" height="80" viewBox="0 0 81 80" fill="none" xmlns="http://www.w3.org/2000/svg">
<path d="M76.1389 54.2699C74.2166 55.6169 72.0075 56.4925 69.6884 56.8266C67.3694 57.1607 65.0048 56.9441 62.7839 56.194C62.5827 56.1219 62.3672 56.0997 62.1557 56.1292C61.9441 56.1587 61.7427 56.2392 61.5687 56.3637L55.5918 60.6273L57.1298 62.8066L62.5528 58.9317C65.0874 59.6765 67.7553 59.8432 70.362 59.4195C72.9687 58.9958 75.4487 57.9925 77.6212 56.4826C78.4039 55.9506 79.1458 55.3601 79.8406 54.7162L78.0395 52.7521C77.4451 53.3057 76.8097 53.8131 76.1389 54.2699Z" fill="#90E051"/>
<path d="M62.7638 34.3294C60.8628 35.5513 59.34 37.2843 58.3679 39.3323C57.3958 41.3802 57.0134 43.661 57.2638 45.9164L40.4263 56.7739L23.5862 45.9231C23.8421 43.667 23.4615 41.384 22.4878 39.3353C21.5142 37.2866 19.987 35.5551 18.0809 34.3387C15.5507 32.5843 12.4739 31.8124 9.42108 32.1662C7.98107 32.308 6.58993 32.7679 5.34702 33.513C4.1041 34.2582 3.04005 35.2702 2.23085 36.4769C1.42165 37.6835 0.887256 39.055 0.665826 40.4934C0.444397 41.9319 0.541393 43.4017 0.949889 44.7981C1.76821 47.7766 3.63275 50.3554 6.19757 52.056C8.03401 53.3803 10.2043 54.1571 12.4596 54.2973C14.7148 54.4374 16.9637 53.9352 18.9482 52.8483L32.0189 62.184L19.5804 70.2075C18.9925 70.5833 18.4855 71.074 18.0895 71.6506C17.6935 72.2271 17.4166 72.8777 17.2752 73.5639C17.1337 74.25 17.1306 74.9578 17.2661 75.6452C17.4015 76.3326 17.6727 76.9856 18.0636 77.5656C18.453 78.1444 18.9535 78.6391 19.5355 79.0206C20.1176 79.4021 20.7696 79.6627 21.4532 79.7872C22.1369 79.9116 22.8383 79.8974 23.5164 79.7454C24.1945 79.5933 24.8355 79.3065 25.4019 78.9018L40.4263 68.1832L55.4508 78.9098C56.0178 79.3271 56.6627 79.6249 57.3468 79.7854C58.031 79.946 58.7403 79.966 59.4323 79.8442C60.1243 79.7224 60.7847 79.4613 61.374 79.0766C61.9633 78.692 62.4694 78.1916 62.8619 77.6054C63.2544 77.0193 63.5252 76.3595 63.6582 75.6655C63.7911 74.9716 63.7835 74.2578 63.6357 73.5669C63.4879 72.876 63.2029 72.2222 62.798 71.6448C62.393 71.0673 61.8763 70.578 61.2789 70.2062L48.8258 62.1893L61.9058 52.8497C63.8901 53.9369 66.1388 54.4396 68.3941 54.2999C70.6493 54.1602 72.8197 53.3839 74.6564 52.06C80.1153 48.3535 81.8977 41.3602 78.6264 36.4699C75.3551 31.5796 68.2346 30.6229 62.7638 34.3294ZM23.8638 76.7279C23.2963 77.1122 22.602 77.2581 21.929 77.1345C21.256 77.011 20.6577 76.6277 20.2618 76.0665C20.0701 75.7821 19.9372 75.4618 19.8708 75.1247C19.8045 74.7876 19.8061 74.4405 19.8756 74.1041C19.9451 73.7677 20.081 73.4487 20.2754 73.1661C20.4697 72.8835 20.7184 72.643 21.0069 72.4589L34.3539 63.8488L38.1246 66.5398L23.8638 76.7279ZM60.9734 74.105C61.0775 74.612 61.0275 75.1387 60.8299 75.6167C60.6323 76.0947 60.2963 76.5018 59.8656 76.785C59.4349 77.0682 58.9294 77.2145 58.4149 77.2048C57.9004 77.1951 57.4007 77.0298 56.9809 76.7305L19.7398 50.1413C19.5127 49.9793 19.2408 49.8932 18.9624 49.8951C18.684 49.897 18.4133 49.9869 18.1885 50.152C16.615 51.185 14.765 51.7089 12.887 51.6532C11.0089 51.5976 9.19275 50.9651 7.68248 49.8407C5.65048 48.4998 4.17064 46.4633 3.51728 44.1086C3.20464 43.08 3.12456 41.9941 3.2829 40.9304C3.44124 39.8666 3.83399 38.852 4.43242 37.9606C5.03084 37.0693 5.81979 36.3238 6.74154 35.7787C7.6633 35.2337 8.69453 34.9028 9.75977 34.8104C12.1745 34.5378 14.6056 35.1549 16.6026 36.5474C18.2035 37.5358 19.4654 38.9934 20.219 40.7242C20.9726 42.4551 21.1817 44.3765 20.8183 46.2304C20.75 46.5022 20.7684 46.7886 20.8709 47.0493C20.9734 47.3099 21.1548 47.5316 21.3894 47.6828L59.8458 72.4576C60.1343 72.6417 60.3828 72.8826 60.5766 73.1657C60.7703 73.4487 60.9053 73.7682 60.9734 74.105ZM73.1662 49.838C71.6555 50.9621 69.839 51.5942 67.9607 51.6494C66.0824 51.7046 64.2323 51.1802 62.6589 50.1466C62.4341 49.9815 62.1633 49.8917 61.885 49.8898C61.6066 49.8879 61.3347 49.974 61.1076 50.136L46.4138 60.63L42.8915 58.3586L59.4593 47.6694C59.6934 47.5184 59.8744 47.2972 59.9769 47.0371C60.0794 46.777 60.0981 46.4911 60.0304 46.2197C59.6742 44.3655 59.8873 42.4461 60.6412 40.7166C61.3951 38.9871 62.6543 37.5292 64.2514 36.5367C68.5016 33.6546 73.9658 34.2906 76.4216 37.9503C78.8774 41.61 77.4151 46.9559 73.1662 49.838Z" fill="#90E051"/>
<path d="M15.0938 2.44904L13.6235 0.223022C10.4151 2.36167 8.00898 5.51738 6.78727 9.18898C5.56555 12.8606 5.59828 16.8376 6.88026 20.4883L9.3839 19.5958C8.29988 16.5062 8.27311 13.1408 9.30786 10.0342C10.3426 6.92758 12.3795 4.25784 15.0951 2.44904H15.0938Z" fill="#90E051"/>
<path d="M12.2024 24.4085C11.5629 23.6787 10.9961 22.8874 10.5103 22.0462L8.21118 23.3823C8.7848 24.3769 9.45434 25.3123 10.2101 26.1749L12.2024 24.4085Z" fill="#90E051"/>
<path d="M55.0099 45.696L58.7912 26.6773C61.8655 26.4082 64.7173 24.9535 66.7498 22.6175C68.7823 20.2816 69.838 17.2454 69.6961 14.1443C69.5542 11.0432 68.2257 8.11746 65.9884 5.97924C63.7512 3.84101 60.7787 2.656 57.6928 2.67216C55.0071 2.66259 52.3985 3.57458 50.2975 5.25759C49.2032 3.6378 47.7316 2.3119 46.011 1.3955C44.2905 0.479089 42.3732 0 40.4264 0C38.4795 0 36.5623 0.479089 34.8417 1.3955C33.1212 2.3119 31.6496 3.6378 30.5553 5.25759C28.4543 3.57458 25.8456 2.66259 23.1599 2.67216C20.0846 2.67187 17.1274 3.86395 14.9033 6.00055C12.6792 8.13716 11.3592 11.0539 11.2177 14.1444C11.0763 17.2348 12.1243 20.2612 14.1439 22.5944C16.1634 24.9276 18.9991 26.388 22.0615 26.672L25.8428 45.696L28.4461 45.1722L27.7023 41.4203H53.1504L52.4066 45.1615L55.0099 45.696ZM48.5987 38.748L49.7104 30.9209L47.0806 30.5414L45.9158 38.748H41.7546V24.0504H39.0982V38.748H34.937L33.7721 30.5414L31.1423 30.9209L32.254 38.748H27.171L24.4615 25.1194C24.4003 24.8176 24.2373 24.5463 24.0001 24.3515C23.7629 24.1567 23.4661 24.0504 23.1599 24.0504C20.6941 24.0504 18.3293 23.065 16.5857 21.311C14.8421 19.557 13.8626 17.178 13.8626 14.6974C13.8626 12.2169 14.8421 9.8379 16.5857 8.08387C18.3293 6.32985 20.6941 5.34444 23.1599 5.34444C24.4256 5.34118 25.6785 5.60054 26.8401 6.10631C28.0017 6.61208 29.0471 7.3534 29.9111 8.28396C30.0587 8.441 30.242 8.55968 30.4452 8.6298C30.6485 8.69991 30.8656 8.71939 31.078 8.68654C31.2903 8.65369 31.4916 8.56951 31.6645 8.44121C31.8374 8.31291 31.9768 8.14433 32.0707 7.94992C32.8295 6.36917 34.0159 5.03568 35.4939 4.10253C36.9719 3.16939 38.6814 2.6744 40.4264 2.6744C42.1713 2.6744 43.8809 3.16939 45.3589 4.10253C46.8368 5.03568 48.0233 6.36917 48.782 7.94992C48.8759 8.14433 49.0153 8.31291 49.1882 8.44121C49.3611 8.56951 49.5624 8.65369 49.7748 8.68654C49.9871 8.71939 50.2043 8.69991 50.4075 8.6298C50.6107 8.55968 50.794 8.441 50.9416 8.28396C51.8056 7.3534 52.8511 6.61208 54.0127 6.10631C55.1743 5.60054 56.4271 5.34118 57.6928 5.34444C60.1586 5.34444 62.5235 6.32985 64.267 8.08387C66.0106 9.8379 66.9902 12.2169 66.9902 14.6974C66.9902 17.178 66.0106 19.557 64.267 21.311C62.5235 23.065 60.1586 24.0504 57.6928 24.0504C57.3867 24.0504 57.0898 24.1567 56.8526 24.3515C56.6155 24.5463 56.4524 24.8176 56.3912 25.1194L53.6817 38.748H48.5987Z" fill="#90E051"/>
</svg>
