<svg width="26" height="26" viewBox="0 0 26 26" fill="none" xmlns="http://www.w3.org/2000/svg">
<path d="M13.0291 19.4333L17.9885 22.5821C18.6281 22.9855 19.4153 22.3853 19.2283 21.6473L17.7917 15.9991C17.7528 15.8426 17.759 15.6782 17.8095 15.525C17.86 15.3718 17.9527 15.236 18.077 15.1332L22.5247 11.4236C23.1052 10.9414 22.81 9.96726 22.0524 9.91806L16.2468 9.54414C16.0884 9.53492 15.9361 9.47976 15.8085 9.3854C15.681 9.29104 15.5837 9.16156 15.5285 9.01278L13.3637 3.56146C13.3064 3.40392 13.202 3.26784 13.0647 3.17167C12.9274 3.07551 12.7638 3.02393 12.5962 3.02393C12.4285 3.02393 12.265 3.07551 12.1277 3.17167C11.9904 3.26784 11.886 3.40392 11.8287 3.56146L9.66388 9.01278C9.6087 9.16156 9.51139 9.29104 9.38382 9.3854C9.25626 9.47976 9.10397 9.53492 8.94556 9.54414L3.14 9.91806C2.38232 9.96726 2.08712 10.9414 2.66768 11.4236L7.11533 15.1332C7.23965 15.236 7.33239 15.3718 7.38287 15.525C7.43336 15.6782 7.43954 15.8426 7.40069 15.9991L6.0723 21.234C5.84598 22.1196 6.79061 22.8379 7.54829 22.3557L12.1632 19.4333C12.2926 19.351 12.4428 19.3073 12.5962 19.3073C12.7495 19.3073 12.8997 19.351 13.0291 19.4333Z" fill="#90E051"/>
</svg>
