<svg width="15" height="15" viewBox="0 0 15 15" fill="none" xmlns="http://www.w3.org/2000/svg">
<path d="M8 3.94092C6 3.94092 4.40625 5.56592 4.40625 7.53467C4.40625 9.53467 6 11.1284 8 11.1284C9.96875 11.1284 11.5938 9.53467 11.5938 7.53467C11.5938 5.56592 9.96875 3.94092 8 3.94092ZM8 9.87842C6.71875 9.87842 5.65625 8.84717 5.65625 7.53467C5.65625 6.25342 6.6875 5.22217 8 5.22217C9.28125 5.22217 10.3125 6.25342 10.3125 7.53467C10.3125 8.84717 9.28125 9.87842 8 9.87842ZM12.5625 3.81592C12.5625 3.34717 12.1875 2.97217 11.7188 2.97217C11.25 2.97217 10.875 3.34717 10.875 3.81592C10.875 4.28467 11.25 4.65967 11.7188 4.65967C12.1875 4.65967 12.5625 4.28467 12.5625 3.81592ZM14.9375 4.65967C14.875 3.53467 14.625 2.53467 13.8125 1.72217C13 0.909668 12 0.659668 10.875 0.597168C9.71875 0.534668 6.25 0.534668 5.09375 0.597168C3.96875 0.659668 3 0.909668 2.15625 1.72217C1.34375 2.53467 1.09375 3.53467 1.03125 4.65967C0.96875 5.81592 0.96875 9.28467 1.03125 10.4409C1.09375 11.5659 1.34375 12.5347 2.15625 13.3784C3 14.1909 3.96875 14.4409 5.09375 14.5034C6.25 14.5659 9.71875 14.5659 10.875 14.5034C12 14.4409 13 14.1909 13.8125 13.3784C14.625 12.5347 14.875 11.5659 14.9375 10.4409C15 9.28467 15 5.81592 14.9375 4.65967ZM13.4375 11.6597C13.2188 12.2847 12.7188 12.7534 12.125 13.0034C11.1875 13.3784 9 13.2847 8 13.2847C6.96875 13.2847 4.78125 13.3784 3.875 13.0034C3.25 12.7534 2.78125 12.2847 2.53125 11.6597C2.15625 10.7534 2.25 8.56592 2.25 7.53467C2.25 6.53467 2.15625 4.34717 2.53125 3.40967C2.78125 2.81592 3.25 2.34717 3.875 2.09717C4.78125 1.72217 6.96875 1.81592 8 1.81592C9 1.81592 11.1875 1.72217 12.125 2.09717C12.7188 2.31592 13.1875 2.81592 13.4375 3.40967C13.8125 4.34717 13.7188 6.53467 13.7188 7.53467C13.7188 8.56592 13.8125 10.7534 13.4375 11.6597Z" fill="white"/>
</svg>
