<svg width="81" height="80" viewBox="0 0 81 80" fill="none" xmlns="http://www.w3.org/2000/svg">
<path d="M80.1693 0.45035C79.7439 0.0295075 79.1151 -0.110981 78.5525 0.0910105L13.8851 23.2088C11.6384 21.8314 8.78877 21.5089 6.17515 22.5939C1.83677 24.3957 -0.230986 29.4004 1.56602 33.7504C5.80382 44.0074 11.9224 53.1886 19.7523 61.039C27.5823 68.8894 36.7395 75.0241 46.9699 79.2728C48.0324 79.7139 49.1336 79.9227 50.2178 79.9227C53.5614 79.9226 56.7404 77.9362 58.0973 74.6514C59.0103 72.4414 58.924 70.0628 58.0508 68.0204L80.5485 2.06644C80.7419 1.49949 80.5946 0.871348 80.1693 0.45035ZM23.6766 23.0229L30.5302 20.573C31.3348 21.4325 31.727 22.6158 31.5699 23.8124C31.4313 24.8661 30.892 25.8028 30.0511 26.4499C29.2102 27.0969 28.1689 27.3765 27.1172 27.238C26.0665 27.0992 25.1323 26.5587 24.487 25.7154C23.8924 24.9385 23.6095 23.9907 23.6766 23.0229ZM55.2204 73.4565C54.0804 76.216 50.9133 77.5312 48.1616 76.3879C28.2267 68.1092 12.7005 52.5424 4.44307 32.5555C3.89083 31.2188 3.89083 29.7467 4.44307 28.4098C4.99531 27.0732 6.03363 26.0321 7.36682 25.4785C8.70002 24.9248 10.1685 24.9248 11.5017 25.4785C12.8349 26.0321 13.8732 27.0732 14.4255 28.4098C17.9599 36.9651 23.0635 44.623 29.5945 51.1711C36.1255 57.7191 43.7635 62.8359 52.2965 66.3796C55.0488 67.5224 56.3606 70.6973 55.2204 73.4565ZM69.0526 26.1199C68.9117 26.1164 68.7707 26.1083 68.6299 26.0899C67.5792 25.9511 66.645 25.4104 65.9998 24.5673C65.3545 23.7242 65.0753 22.6794 65.2136 21.6259C65.4993 19.4509 67.496 17.9145 69.6662 18.2005C70.3357 18.2889 70.9642 18.5492 71.5003 18.9452L69.0526 26.1199ZM72.5352 15.9101C71.7766 15.4959 70.9432 15.2201 70.0726 15.1052C66.2003 14.5927 62.6361 17.3365 62.1263 21.2185C61.8794 23.0989 62.3776 24.9632 63.5293 26.468C64.6386 27.9173 66.2267 28.8642 68.0181 29.153L64.9235 38.2253L61.3647 35.4874C60.6826 34.9629 59.705 35.0915 59.1817 35.7755C58.6583 36.4595 58.787 37.4394 59.4691 37.9642L63.8604 41.3425L55.812 64.9376C55.137 64.3491 54.3596 63.8567 53.4888 63.4951C36.9885 56.6425 24.1376 43.7581 17.3031 27.215C17.0656 26.6397 16.7704 26.1055 16.4299 25.6135L20.5992 24.123C20.7447 25.3825 21.2269 26.5838 22.0167 27.6158C23.1682 29.1205 24.8356 30.0856 26.711 30.333C27.0252 30.3745 27.3385 30.3951 27.6502 30.3951C29.199 30.3951 30.6974 29.8878 31.9468 28.9267C33.4479 27.7719 34.4102 26.1005 34.6573 24.2198C34.8788 22.5316 34.4859 20.8595 33.6036 19.4743L52.9573 12.5557L53.6907 14.3311C53.9392 14.9323 54.5189 15.2952 55.1298 15.2952C55.3283 15.2952 55.5301 15.2568 55.725 15.1759C56.5194 14.8461 56.8966 13.9328 56.5676 13.1363L55.8941 11.5059L76.5575 4.11898L72.5352 15.9101Z" fill="#90E051"/>
</svg>
