<svg width="19" height="19" viewBox="0 0 19 19" fill="none" xmlns="http://www.w3.org/2000/svg">
<mask id="path-1-outside-1_316_247" maskUnits="userSpaceOnUse" x="-0.442627" y="-0.057373" width="19" height="19" fill="black">
<rect fill="white" x="-0.442627" y="-0.057373" width="19" height="19"/>
<path fill-rule="evenodd" clip-rule="evenodd" d="M9.76909 2.45584C9.76909 2.1724 9.53932 1.94263 9.25588 1.94263C8.97243 1.94263 8.74266 2.1724 8.74266 2.45584V9.12738H2.07059C1.78715 9.12738 1.55737 9.35715 1.55737 9.64059C1.55737 9.92404 1.78715 10.1538 2.07059 10.1538H8.74266V16.8259C8.74266 17.1093 8.97243 17.3391 9.25588 17.3391C9.53932 17.3391 9.76909 17.1093 9.76909 16.8259V10.1538H16.4406C16.7241 10.1538 16.9539 9.92404 16.9539 9.64059C16.9539 9.35715 16.7241 9.12738 16.4406 9.12738H9.76909V2.45584Z"/>
</mask>
<path fill-rule="evenodd" clip-rule="evenodd" d="M9.76909 2.45584C9.76909 2.1724 9.53932 1.94263 9.25588 1.94263C8.97243 1.94263 8.74266 2.1724 8.74266 2.45584V9.12738H2.07059C1.78715 9.12738 1.55737 9.35715 1.55737 9.64059C1.55737 9.92404 1.78715 10.1538 2.07059 10.1538H8.74266V16.8259C8.74266 17.1093 8.97243 17.3391 9.25588 17.3391C9.53932 17.3391 9.76909 17.1093 9.76909 16.8259V10.1538H16.4406C16.7241 10.1538 16.9539 9.92404 16.9539 9.64059C16.9539 9.35715 16.7241 9.12738 16.4406 9.12738H9.76909V2.45584Z" fill="white"/>
<path d="M8.74266 9.12738V10.5271H10.1423V9.12738H8.74266ZM8.74266 10.1538H10.1423V8.75413H8.74266V10.1538ZM9.76909 10.1538V8.75413H8.36941V10.1538H9.76909ZM9.76909 9.12738H8.36941V10.5271H9.76909V9.12738ZM9.25588 3.34231C8.76629 3.34231 8.36941 2.94542 8.36941 2.45584H11.1688C11.1688 1.39938 10.3123 0.542946 9.25588 0.542946V3.34231ZM10.1423 2.45584C10.1423 2.94542 9.74546 3.34231 9.25588 3.34231V0.542946C8.19941 0.542946 7.34298 1.39938 7.34298 2.45584H10.1423ZM10.1423 9.12738V2.45584H7.34298V9.12738H10.1423ZM2.07059 10.5271H8.74266V7.7277H2.07059V10.5271ZM2.95705 9.64059C2.95705 10.1302 2.56017 10.5271 2.07059 10.5271V7.7277C1.01412 7.7277 0.157692 8.58413 0.157692 9.64059H2.95705ZM2.07059 8.75413C2.56017 8.75413 2.95705 9.15102 2.95705 9.64059H0.157692C0.157692 10.6971 1.01412 11.5535 2.07059 11.5535V8.75413ZM8.74266 8.75413H2.07059V11.5535H8.74266V8.75413ZM10.1423 16.8259V10.1538H7.34298V16.8259H10.1423ZM9.25588 15.9394C9.74546 15.9394 10.1423 16.3363 10.1423 16.8259H7.34298C7.34298 17.8824 8.19941 18.7388 9.25588 18.7388V15.9394ZM8.36941 16.8259C8.36941 16.3363 8.7663 15.9394 9.25588 15.9394V18.7388C10.3123 18.7388 11.1688 17.8824 11.1688 16.8259H8.36941ZM8.36941 10.1538V16.8259H11.1688V10.1538H8.36941ZM16.4406 8.75413H9.76909V11.5535H16.4406V8.75413ZM15.5542 9.64059C15.5542 9.15102 15.9511 8.75413 16.4406 8.75413V11.5535C17.4971 11.5535 18.3535 10.6971 18.3535 9.64059H15.5542ZM16.4406 10.5271C15.9511 10.5271 15.5542 10.1302 15.5542 9.64059H18.3535C18.3535 8.58413 17.4971 7.7277 16.4406 7.7277V10.5271ZM9.76909 10.5271H16.4406V7.7277H9.76909V10.5271ZM8.36941 2.45584V9.12738H11.1688V2.45584H8.36941Z" fill="white" mask="url(#path-1-outside-1_316_247)"/>
</svg>
