<svg width="28" height="28" viewBox="0 0 28 28" fill="none" xmlns="http://www.w3.org/2000/svg">
<path d="M22.8558 23.5601H5.22075C5.00601 23.5601 4.79881 23.4809 4.6388 23.3377C4.47879 23.1945 4.37721 22.9973 4.35349 22.7839L2.80221 8.82232C2.78866 8.70035 2.80099 8.57689 2.83839 8.46001C2.87579 8.34313 2.93743 8.23545 3.01928 8.14401C3.10112 8.05256 3.20133 7.97941 3.31337 7.92933C3.42541 7.87925 3.54675 7.85336 3.66947 7.85336H24.4071C24.5299 7.85336 24.6512 7.87925 24.7632 7.92933C24.8753 7.97941 24.9755 8.05256 25.0573 8.14401C25.1392 8.23545 25.2008 8.34313 25.2382 8.46001C25.2756 8.57689 25.2879 8.70035 25.2744 8.82232L23.7231 22.7839C23.6994 22.9973 23.5978 23.1945 23.4378 23.3377C23.2778 23.4809 23.0706 23.5601 22.8558 23.5601Z" stroke="black" stroke-width="1.74519" stroke-linecap="round" stroke-linejoin="round"/>
<path d="M9.67554 11.3438V7.85337C9.67554 6.69623 10.1352 5.58649 10.9534 4.76827C11.7716 3.95006 12.8814 3.49039 14.0385 3.49039C15.1957 3.49039 16.3054 3.95006 17.1236 4.76827C17.9418 5.58649 18.4015 6.69623 18.4015 7.85337V11.3438" stroke="black" stroke-width="1.74519" stroke-linecap="round" stroke-linejoin="round"/>
</svg>
