<svg width="16" height="14" viewBox="0 0 16 14" fill="none" xmlns="http://www.w3.org/2000/svg">
<path d="M14.3438 3.28467C14.9688 2.81592 15.5312 2.25342 15.9688 1.59717C15.4062 1.84717 14.75 2.03467 14.0938 2.09717C14.7812 1.69092 15.2812 1.06592 15.5312 0.284668C14.9062 0.659668 14.1875 0.940918 13.4688 1.09717C12.8438 0.440918 12 0.065918 11.0625 0.065918C9.25 0.065918 7.78125 1.53467 7.78125 3.34717C7.78125 3.59717 7.8125 3.84717 7.875 4.09717C5.15625 3.94092 2.71875 2.62842 1.09375 0.659668C0.8125 1.12842 0.65625 1.69092 0.65625 2.31592C0.65625 3.44092 1.21875 4.44092 2.125 5.03467C1.59375 5.00342 1.0625 4.87842 0.625 4.62842V4.65967C0.625 6.25342 1.75 7.56592 3.25 7.87842C3 7.94092 2.6875 8.00342 2.40625 8.00342C2.1875 8.00342 2 7.97217 1.78125 7.94092C2.1875 9.25342 3.40625 10.1909 4.84375 10.2222C3.71875 11.0972 2.3125 11.6284 0.78125 11.6284C0.5 11.6284 0.25 11.5972 0 11.5659C1.4375 12.5034 3.15625 13.0347 5.03125 13.0347C11.0625 13.0347 14.3438 8.06592 14.3438 3.72217C14.3438 3.56592 14.3438 3.44092 14.3438 3.28467Z" fill="white"/>
</svg>
