<svg width="18" height="13" viewBox="0 0 18 13" fill="none" xmlns="http://www.w3.org/2000/svg">
<path d="M17.1562 2.43262C16.9688 1.68262 16.375 1.08887 15.6562 0.901367C14.3125 0.526367 9 0.526367 9 0.526367C9 0.526367 3.65625 0.526367 2.3125 0.901367C1.59375 1.08887 1 1.68262 0.8125 2.43262C0.4375 3.74512 0.4375 6.55762 0.4375 6.55762C0.4375 6.55762 0.4375 9.33887 0.8125 10.6826C1 11.4326 1.59375 11.9951 2.3125 12.1826C3.65625 12.5264 9 12.5264 9 12.5264C9 12.5264 14.3125 12.5264 15.6562 12.1826C16.375 11.9951 16.9688 11.4326 17.1562 10.6826C17.5312 9.33887 17.5312 6.55762 17.5312 6.55762C17.5312 6.55762 17.5312 3.74512 17.1562 2.43262ZM7.25 9.08887V4.02637L11.6875 6.55762L7.25 9.08887Z" fill="white"/>
</svg>
